# xmcd CD database file
#
# Track frame offsets:
#	150
#	26278
#	45989
#	65113
#	84203
#	107699
#	123053
#	158973
#	182694
#
# Disc length: 3259 seconds
#
# Revision: 0
# Processed by: cddbd v1.5.2PL0 Copyright (c) Steve Scherf et al.
# Submitted via: CDex 1.70beta2
#
DISCID=630cb909
DTITLE=My Bloody Valentine - This Is Your Destiny(Bootleg)
DYEAR=1992
DGENRE=shoegazer
TTITLE0=I Only Said 
TTITLE1=Only Shallow 
TTITLE2=Slow
TTITLE3=Nothing Much To Lose 
TTITLE4=You Never Should 
TTITLE5=Honey Power
TTITLE6=Soon
TTITLE7=To Here Knows When 
TTITLE8=Feed Me With Your Kiss
EXTD=YEAR: 1992
EXTT0=
EXTT1=
EXTT2=
EXTT3=
EXTT4=
EXTT5=
EXTT6=
EXTT7=
EXTT8=
PLAYORDER=
